<svg width="32" height="32" viewBox="0 0 32 32" fill="none" xmlns="http://www.w3.org/2000/svg"><g clip-path="url(#clip0_8884_38205)"><path d="M28.1202 9.90999C26.5702 7.90999 24.3402 6.74999 22.0102 6.48999V8.50999C23.7402 8.75999 25.3902 9.64999 26.5402 11.14C26.9902 11.72 27.3402 12.36 27.5802 13.01C28.3302 15.05 28.0802 17.33 26.9302 19.16C26.8202 19.34 26.7602 19.54 26.7702 19.75L26.9702 23.12L23.7602 22.09C23.5602 22.03 23.3502 22.03 23.1502 22.09C21.3102 22.68 19.2902 22.47 17.6102 21.53C18.2002 20.9 18.7102 20.16 19.1202 19.33C20.6402 16.24 20.2002 12.45 18.0302 9.77999C17.9002 9.61999 17.7502 9.46999 17.6102 9.31999C18.3702 8.89999 19.1802 8.61999 20.0102 8.49999V6.48999C18.6102 6.63999 17.2402 7.11999 16.0102 7.93999C14.7802 7.11999 13.4002 6.63999 12.0102 6.48999V8.49999C12.8402 8.61999 13.6502 8.89999 14.4102 9.31999C14.2702 9.46999 14.1302 9.61999 13.9902 9.77999C11.8202 12.45 11.3802 16.24 12.9002 19.33C13.3102 20.17 13.8302 20.9 14.4102 21.53C12.7202 22.47 10.7102 22.68 8.87023 22.09C8.67023 22.03 8.46023 22.02 8.26023 22.09L5.05023 23.12L5.25023 19.75C5.26023 19.54 5.20023 19.34 5.09023 19.16C3.94023 17.33 3.69023 15.05 4.44023 13.01C4.68023 12.35 5.02023 11.72 5.48023 11.14C6.63023 9.64999 8.28023 8.75999 10.0102 8.50999V6.48999C7.68023 6.74999 5.45023 7.90999 3.90023 9.90999C1.59023 12.89 1.45023 16.87 3.24023 19.95L2.97023 24.46C2.93023 25.16 3.61023 25.69 4.27023 25.47L8.57023 24.09C11.0902 24.8 13.8202 24.37 16.0102 22.91C18.2002 24.37 20.9302 24.8 23.4502 24.09L27.7502 25.47C28.4202 25.69 29.1002 25.16 29.0502 24.46L28.7802 19.95C30.5602 16.87 30.4302 12.89 28.1202 9.90999ZM15.8502 10.69C15.9002 10.64 15.9602 10.6 16.0102 10.55C16.0602 10.6 16.1202 10.64 16.1702 10.69C18.1102 12.79 18.5702 15.98 17.2802 18.54C16.9402 19.22 16.5002 19.8 16.0102 20.3C15.5202 19.8 15.0802 19.22 14.7402 18.54C13.4502 15.98 13.9002 12.79 15.8502 10.69Z" fill="black"/></g><defs><clipPath id="clip0_8884_38205"><rect width="32" height="32" fill="white"/></clipPath></defs></svg>