<svg class="_ufjrdd" viewBox="0 0 48 48" role="img" aria-labelledby="Mostrapassword386666a5-943e-4776-d01b-c4e23598184c Mostrapassword386666a5-943e-4776-d01b-c4e23598184cDesc" xmlns="http://www.w3.org/2000/svg" style="fill: rgb(54, 59, 66); height: 24px; width: 24px;"><title id="Mostrapassword386666a5-943e-4776-d01b-c4e23598184c">Mostra password</title><g transform="translate(0.000000, 9.000000)" role="presentation"><path d="M2.45946122,15 C4.52737959,17.618 13.3868082,28 23.7459918,28 C34.1061551,28 42.9655837,17.618 45.033502,15 C42.9655837,12.382 34.1061551,2 23.7459918,2 C13.3868082,2 4.52737959,12.382 2.45946122,15 M23.7459918,30 C10.9554612,30 0.849991837,16.181 0.426808163,15.593 L-0.000293877551,15 L0.426808163,14.407 C0.849991837,13.819 10.9554612,0 23.7459918,0 C36.537502,0 46.6429714,13.819 47.0661551,14.407 L47.4932571,15 L47.0661551,15.593 C46.6429714,16.181 36.537502,30 23.7459918,30"/><path d="M23.7464816,9 C20.5050122,9 17.8689306,11.692 17.8689306,15 C17.8689306,18.308 20.5050122,21 23.7464816,21 C26.987951,21 29.6240327,18.308 29.6240327,15 C29.6240327,11.692 26.987951,9 23.7464816,9 M23.7464816,23 C19.425502,23 15.9097469,19.411 15.9097469,15 C15.9097469,10.589 19.425502,7 23.7464816,7 C28.0674612,7 31.5832163,10.589 31.5832163,15 C31.5832163,19.411 28.0674612,23 23.7464816,23"/></g></svg>