<svg class="_ufjrdd" viewBox="0 0 52 48" role="img" aria-labelledby="Nascondipassword722e7ef0-bf23-4c27-cc5a-14cb8c2912da Nascondipassword722e7ef0-bf23-4c27-cc5a-14cb8c2912daDesc" xmlns="http://www.w3.org/2000/svg" style="fill: rgb(54, 59, 66); height: 24px; width: 24px;"><title id="Nascondipassword722e7ef0-bf23-4c27-cc5a-14cb8c2912da">Nascondi password</title><path d="M16.977 29.629A9 9 0 0 1 29.63 16.978l5.684-5.685a22.562 22.562 0 0 0-1.378-.583C31.133 9.626 27.935 9 24 9c-6.693 0-12.34 2.35-16.616 6.292C4.14 18.282 2 22.069 2 24c0 2.612 3.755 8.537 8.858 11.748l6.12-6.119zm1.425-1.425l9.803-9.801a7 7 0 0 0-9.802 9.801zM36.814 9.792l7.498-7.5a1 1 0 0 1 1.415 1.415L30.66 18.777 18.774 30.66 3.727 45.707a1 1 0 1 1-1.415-1.414l7.099-7.098C3.95 33.586 0 27.262 0 24c0-2.577 2.411-6.846 6.029-10.18C10.664 9.55 16.789 7 24 7c4.188 0 7.63.673 10.657 1.845.78.302 1.37.564 2.157.947zm11.185 14.24c-.02 2.581-2.425 6.828-6.028 10.147C37.336 38.45 31.211 41 24 41c-2.56 0-5.246-.368-7.287-1.016a1 1 0 1 1 .605-1.906C19.151 38.66 21.634 39 24 39c6.693 0 12.34-2.35 16.616-6.291C43.86 29.719 46 25.932 46 24v-.025c-.015-1.962-1.793-5.448-4.695-8.254a1 1 0 1 1 1.39-1.438C45.97 17.45 48 21.443 48 24v.033zm-16.997-.094a1 1 0 1 1 1.996.125 9.55 9.55 0 0 1-8.936 8.935 1 1 0 0 1-.124-1.996 7.55 7.55 0 0 0 7.064-7.064z" role="presentation"/></svg>