<svg xmlns="http://www.w3.org/2000/svg" aria-hidden="true" fill="none" focusable="false" height="24" viewBox="0 0 24 24" width="24" class="css-ggns0z" id="cds-react-aria-25"><path d="M16.5 11a1.5 1.5 0 100-3 1.5 1.5 0 000 3zM7.5 11a1.5 1.5 0 100-3 1.5 1.5 0 000 3zM12 11a1.5 1.5 0 100-3 1.5 1.5 0 000 3z" fill="currentColor"/><path fill-rule="evenodd" clip-rule="evenodd" d="M5.818 2.499a3.13 3.13 0 00-3.32 3.346l.002.017V20.53l-.003.029a.84.84 0 001.447.671l3.987-4.309H18.18a3.14 3.14 0 003.32-3.32V5.862l.001-.017a3.13 3.13 0 00-3.32-3.346l-.015.001H5.834l-.016-.001zm.047-.999A4.13 4.13 0 001.5 5.897v14.576a1.84 1.84 0 003.175 1.438l.002-.001 3.692-3.99h9.767a4.14 4.14 0 004.364-4.364V5.897A4.13 4.13 0 0018.135 1.5H5.865z" fill="currentColor"/></svg>