<svg xmlns="http://www.w3.org/2000/svg" aria-hidden="true" fill="none" focusable="false" height="20" viewBox="0 0 20 20" width="20" id="cds-react-aria-138" class="css-0"><g clip-path="url(#cds-react-aria-138_0)" fill="currentColor"><path fill-rule="evenodd" clip-rule="evenodd" d="M10 1.5a8.5 8.5 0 100 17 8.5 8.5 0 000-17zM.5 10a9.5 9.5 0 1119 0 9.5 9.5 0 01-19 0z"/><path d="M10 15.78a.87.87 0 100-1.74.87.87 0 000 1.74zM10 4.38a3.26 3.26 0 00-3.32 3.19v.22h1v-.22a2.32 2.32 0 014.64 0 2.162 2.162 0 01-.68 1.58l-1.08 1a3.08 3.08 0 00-1 2.26v.22h1v-.22a2.16 2.16 0 01.68-1.57l1.08-1a3.1 3.1 0 001-2.26A3.26 3.26 0 0010 4.38z"/></g><defs><clipPath id="cds-react-aria-138_0"><path fill="#fff" d="M0 0h20v20H0z"/></clipPath></defs></svg>